<svg xmlns="http://www.w3.org/2000/svg" viewBox="0 0 165 53" fill="none">
   <defs>
     <linearGradient id="muscleGradient" x1="0%" y1="0%" x2="0%" y2="100%">
       <stop offset="0%" style="stop-color:#FF4D4D;stop-opacity:1" />
       <stop offset="50%" style="stop-color:#FF6B35;stop-opacity:1" />
       <stop offset="100%" style="stop-color:#FF0336;stop-opacity:1" />
     </linearGradient>
     <filter id="shadowEffect" x="-20%" y="-20%" width="140%" height="140%">
       <feGaussianBlur in="SourceAlpha" stdDeviation="1" result="shadow"/>
       <feOffset dx="0" dy="1"/>
       <feComposite in2="SourceAlpha" operator="arithmetic" k2="-1" k3="1"/>
       <feColorMatrix type="matrix" values="0 0 0 0 0  0 0 0 0 0  0 0 0 0 0  0 0 0 0.3 0"/>
     </filter>
   </defs>
   
   <!-- More detailed muscle icon with depth and definition -->
   <path d="M16.8374 5.5C10 8 6 13.5 7.5 20C9 26.5 13.5 31.5 16.8374 34C20.1748 31.5 24.6748 26.5 26.1748 20C27.6748 13.5 23.6748 8 16.8374 5.5Z" 
         fill="url(#muscleGradient)" 
         filter="url(#shadowEffect)"
         stroke="#FF0336" 
         stroke-width="0.5"/>
   
   <path d="M16.8374 34V46.5C23 44 27.5 38 28.5 31.5C29.5 25 26 18 16.8374 15V34Z" 
         fill="url(#muscleGradient)" 
         filter="url(#shadowEffect)"
         stroke="#FF0336" 
         stroke-width="0.5"/>
   
   <path d="M16.8374 34V46.5C10.6748 44 6.1748 38 5.1748 31.5C4.1748 25 7.6748 18 16.8374 15V34Z" 
         fill="url(#muscleGradient)" 
         filter="url(#shadowEffect)"
         stroke="#FF0336" 
         stroke-width="0.5"/>
   
   <path d="M16.8374 34L7.1748 16L16.8374 24L26.5 16L16.8374 34Z" 
         fill="white" 
         stroke="#FF0336" 
         stroke-width="0.5"/>
   
   <!-- Retained original detail elements -->
   <path d="M8.1748 8C8.1748 8 13.1748 6 16.8374 7.5C16.8374 7.5 11.1748 5.5 8.1748 8Z" fill="url(#muscleGradient)"/>
   
   <path d="M10.1748 20.5C10.1748 20.5 3.1748 25.5 5.1748 36C5.1748 36 4.6748 31.5 6.6748 28.5C6.6748 28.5 4.6748 38 10.1748 43.5C10.1748 43.5 1.6748 36 10.1748 20.5Z" fill="#F2F2F2"/>
   
   <path d="M25.5 25.5C25.5 25.5 29.5 36 20 44.5C20 44.5 32 37.5 25.5 25.5Z" fill="#F2F2F2"/>
   
   <!-- Text remains identical -->
   <path d="M45 15.5C41.5 15.5 38.7 18.3 38.7 22C38.7 25.7 41.5 28.5 45 28.5C48.5 28.5 51.3 25.7 51.3 22C51.3 18.3 48.5 15.5 45 15.5ZM45 26.5C42.6 26.5 40.7 24.6 40.7 22C40.7 19.4 42.6 17.5 45 17.5C47.4 17.5 49.3 19.4 49.3 22C49.3 24.6 47.4 26.5 45 26.5Z" fill="#181C20"/>
   
   <path d="M57.5 15.5L52.5 28.5H54.5L59.5 15.5H57.5Z" fill="#181C20"/>
   
   <path d="M65 15.5C61.5 15.5 58.7 18.3 58.7 22C58.7 25.7 61.5 28.5 65 28.5C68.5 28.5 71.3 25.7 71.3 22C71.3 18.3 68.5 15.5 65 15.5ZM65 26.5C62.6 26.5 60.7 24.6 60.7 22C60.7 19.4 62.6 17.5 65 17.5C67.4 17.5 69.3 19.4 69.3 22C69.3 24.6 67.4 26.5 65 26.5Z" fill="#181C20"/>
   
   <path d="M80 15.5C76.5 15.5 73.7 18.3 73.7 22C73.7 25.7 76.5 28.5 80 28.5C83.5 28.5 86.3 25.7 86.3 22C86.3 18.3 83.5 15.5 80 15.5Z" fill="#181C20"/>
   
   <path d="M93 15.5H89V28.5H93C96.5 28.5 99.3 25.7 99.3 22C99.3 18.3 96.5 15.5 93 15.5ZM93 26.5H91V17.5H93C95.4 17.5 97.3 19.4 97.3 22C97.3 24.6 95.4 26.5 93 26.5Z" fill="#181C20"/>
   
   <path d="M107 15.5L102 28.5H104L109 15.5H107Z" fill="#181C20"/>
   
   <path d="M115 15.5C111.5 15.5 108.7 18.3 108.7 22C108.7 25.7 111.5 28.5 115 28.5C118.5 28.5 121.3 25.7 121.3 22C121.3 18.3 118.5 15.5 115 15.5Z" fill="#181C20"/>
   
   <path d="M129 15.5H125V28.5H129C132.5 28.5 135.3 25.7 135.3 22C135.3 18.3 132.5 15.5 129 15.5Z" fill="#181C20"/>
</svg>