<svg xmlns="http://www.w3.org/2000/svg" viewBox="0 0 165 53" fill="none">
  <!-- Original flame icon -->
  <path d="M28.2066 21.2068C27.3388 20.4188 26.3841 19.6309 25.3426 19.018C26.2105 16.2164 26.7313 11.1384 25.5162 9.82507C23.8673 7.98649 19.1807 11.2259 16.8374 11.2259C14.4942 11.2259 9.80756 7.98649 8.15866 9.82507C7.03036 11.1384 7.55106 16.2164 8.33216 19.1056C7.29076 19.7184 6.33606 20.4188 5.46816 21.2944C4.60036 16.3039 2.17026 11.3135 3.81926 8.24914C5.81536 4.65952 16.5771 5.00973 16.8374 5.00973C17.1846 5.00973 27.8595 4.65952 29.8556 8.16159C31.5046 11.2259 29.0745 16.2164 28.2066 21.2068Z" fill="#FF0336"/>
  <path d="M19.0708 48.3633C18.8982 48.3633 18.7257 48.3633 18.5531 48.4514L26.0596 27.118H18.4668V14.7764C21.0553 14.9527 23.4712 15.8343 25.6282 17.0684C26.6636 17.6855 27.6127 18.3907 28.4755 19.2723C31.2365 21.9169 33.1347 25.5313 33.5661 29.6745C34.6015 38.8426 28.1304 47.2172 19.0708 48.3633Z" fill="#FF0336"/>
  <path d="M16.2944 35.8122V48.4514C8.0641 47.8327 1.1285 41.7341 0.111278 33.6026C-0.536042 28.0343 1.68335 22.8195 5.6598 19.2841C6.5845 18.4886 7.6017 17.6931 8.7114 17.0744C10.7459 15.9254 13.1502 15.13 15.7395 14.7764C15.832 14.7764 15.9245 14.7764 16.0169 14.7764L7.8792 35.8122H16.2944Z" fill="#FF0336"/>
  <path d="M16.8867 48.4515L16.6932 34.2434H9.77637L16.6932 15.8628L15.9838 29.6702H22.8119L16.8867 48.4515Z" fill="white"/>
  <path d="M6.51758 8.25901C6.51758 8.25901 11.652 5.61807 18.4668 7.07059C18.4668 6.93854 11.9321 4.29761 6.51758 8.25901Z" fill="#FF0336"/>
  <path d="M8.69008 20.208C8.69008 20.208 0.478425 25.6016 2.48948 36.4717C2.48948 36.4717 2.07048 31.9079 3.99768 28.6718C3.99768 28.6718 1.8191 38.4632 8.69008 44.1057C8.69008 44.1887 -0.778465 36.5547 8.69008 20.208Z" fill="#F2F2F2"/>
  <path d="M28.4406 25.6392C28.4406 25.6392 32.3636 36.4925 22.812 45.1924C22.812 45.1924 35.0926 37.9569 28.4406 25.6392Z" fill="#F2F2F2"/>
  
  <!-- Text "ZERO" -->
  <path d="M45 15.5C41.5 15.5 38.7 18.3 38.7 22C38.7 25.7 41.5 28.5 45 28.5C48.5 28.5 51.3 25.7 51.3 22C51.3 18.3 48.5 15.5 45 15.5ZM45 26.5C42.6 26.5 40.7 24.6 40.7 22C40.7 19.4 42.6 17.5 45 17.5C47.4 17.5 49.3 19.4 49.3 22C49.3 24.6 47.4 26.5 45 26.5Z" fill="#181C20"/>
  <path d="M57.5 15.5L52.5 28.5H54.5L59.5 15.5H57.5Z" fill="#181C20"/>
  <path d="M65 15.5C61.5 15.5 58.7 18.3 58.7 22C58.7 25.7 61.5 28.5 65 28.5C68.5 28.5 71.3 25.7 71.3 22C71.3 18.3 68.5 15.5 65 15.5ZM65 26.5C62.6 26.5 60.7 24.6 60.7 22C60.7 19.4 62.6 17.5 65 17.5C67.4 17.5 69.3 19.4 69.3 22C69.3 24.6 67.4 26.5 65 26.5Z" fill="#181C20"/>
  
  <!-- Text "DEGREE" -->
  <path d="M80 15.5C76.5 15.5 73.7 18.3 73.7 22C73.7 25.7 76.5 28.5 80 28.5C83.5 28.5 86.3 25.7 86.3 22C86.3 18.3 83.5 15.5 80 15.5Z" fill="#181C20"/>
  <path d="M93 15.5H89V28.5H93C96.5 28.5 99.3 25.7 99.3 22C99.3 18.3 96.5 15.5 93 15.5ZM93 26.5H91V17.5H93C95.4 17.5 97.3 19.4 97.3 22C97.3 24.6 95.4 26.5 93 26.5Z" fill="#181C20"/>
  <path d="M107 15.5L102 28.5H104L109 15.5H107Z" fill="#181C20"/>
  <path d="M115 15.5C111.5 15.5 108.7 18.3 108.7 22C108.7 25.7 111.5 28.5 115 28.5C118.5 28.5 121.3 25.7 121.3 22C121.3 18.3 118.5 15.5 115 15.5Z" fill="#181C20"/>
  <path d="M129 15.5H125V28.5H129C132.5 28.5 135.3 25.7 135.3 22C135.3 18.3 132.5 15.5 129 15.5Z" fill="#181C20"/>
</svg>